<svg aria-hidden="true" style="position: absolute; width: 0; height: 0; overflow: hidden;" version="1.1" xmlns="http://www.w3.org/2000/svg" xmlns:xlink="http://www.w3.org/1999/xlink">
<defs>
<symbol id="icon-arrow-down" viewBox="0 0 53 32">
<path stroke-linejoin="round" stroke-linecap="round" stroke-miterlimit="4" stroke-width="10.6667" d="M48 5.333l-21.333 21.333-21.333-21.333"></path>
</symbol>
<symbol id="icon-envelope" viewBox="0 0 32 32">
<path fill="none"  stroke-linejoin="round" stroke-linecap="round" stroke-miterlimit="4" stroke-width="1.5" d="M4 7h24v17c0 0.265-0.105 0.52-0.293 0.707s-0.442 0.293-0.707 0.293h-22c-0.265 0-0.52-0.105-0.707-0.293s-0.293-0.442-0.293-0.707v-17z"></path>
<path fill="none"  stroke-linejoin="round" stroke-linecap="round" stroke-miterlimit="4" stroke-width="1.5" d="M28 7l-12 11-12-11"></path>
</symbol>
<symbol id="icon-phone" viewBox="0 0 32 32">
<path fill="none"  stroke-linejoin="round" stroke-linecap="round" stroke-miterlimit="4" stroke-width="2" d="M20.549 18.167c0.139-0.092 0.298-0.148 0.463-0.163s0.332 0.011 0.485 0.077l5.895 2.641c0.199 0.085 0.364 0.232 0.473 0.419s0.153 0.404 0.127 0.619c-0.194 1.451-0.909 2.783-2.011 3.747s-2.517 1.495-3.981 1.494c-4.509 0-8.833-1.791-12.021-4.979s-4.979-7.512-4.979-12.021c-0.001-1.464 0.53-2.879 1.493-3.981s2.295-1.817 3.747-2.011c0.215-0.025 0.432 0.019 0.619 0.127s0.334 0.274 0.419 0.473l2.641 5.9c0.065 0.152 0.091 0.317 0.077 0.481s-0.069 0.322-0.159 0.46l-2.671 3.176c-0.095 0.143-0.151 0.308-0.163 0.479s0.021 0.342 0.095 0.497c1.034 2.116 3.221 4.278 5.344 5.301 0.155 0.074 0.328 0.106 0.499 0.093s0.337-0.070 0.48-0.167l3.129-2.661z"></path>
</symbol>
<symbol id="icon-telegram" viewBox="0 0 32 32">
<path  d="M4.496 15.485c0 0 12.072-4.959 16.258-6.705 1.605-0.698 7.047-2.933 7.047-2.933s2.512-0.978 2.303 1.397c-0.070 0.978-0.628 4.4-1.186 8.101-0.837 5.238-1.744 10.965-1.744 10.965s-0.14 1.606-1.326 1.886c-1.186 0.279-3.14-0.978-3.489-1.257-0.279-0.209-5.233-3.352-7.047-4.889-0.488-0.419-1.047-1.257 0.070-2.235 2.512-2.305 5.513-5.168 7.327-6.984 0.837-0.838 1.675-2.794-1.814-0.419-4.954 3.422-9.839 6.635-9.839 6.635s-1.116 0.698-3.21 0.070c-2.093-0.628-4.536-1.467-4.536-1.467s-1.675-1.048 1.186-2.165z"></path>
</symbol>
<symbol id="icon-viber" viewBox="0 0 32 32">
<path  d="M26.797 17.706c-0.695 5.74-4.794 6.099-5.555 6.35-0.323 0.108-3.311 0.867-7.074 0.616l-4.071 4.515-0.007-5.203-0.029-0.007c-5.475-1.555-5.289-7.396-5.231-10.456 0.065-3.060 0.623-5.576 2.293-7.26 2.995-2.781 9.18-2.365 9.18-2.365 5.217 0.022 7.718 1.634 8.299 2.172 1.928 1.684 2.91 5.726 2.193 11.639zM26.030 4.634c-0.688-0.645-3.455-2.702-9.625-2.73 0 0-7.274-0.452-10.822 2.881-1.971 2.021-2.666 4.981-2.745 8.651-0.072 3.669-0.165 10.542 6.306 12.405h0.007v2.845c0 0-0.043 1.154 0.702 1.383 0.896 0.287 1.419-0.587 2.279-1.534 0.473-0.516 1.118-1.276 1.605-1.856 4.429 0.38 7.833-0.495 8.213-0.616 0.896-0.301 5.949-0.96 6.773-7.833 0.838-7.096-0.423-11.574-2.695-13.595z"></path>
<path  d="M22.080 18.566c0 0-0.831-0.709-1.233-1.011-0.38-0.287-0.989-0.674-1.326-0.867-0.609-0.344-1.233-0.129-1.491 0.215l-0.537 0.688c-0.272 0.351-0.695 0.287-0.803 0.265-0.788-0.201-1.627-0.688-2.487-1.52-0.867-0.838-1.398-1.713-1.584-2.623l-0.014-0.057c-0.050-0.373 0.014-0.544 0.165-0.803l0.029-0.021c0.359-0.337 1.032-0.745 1.118-1.132 0.265-0.674-0.881-2.086-1.039-2.329 0 0-0.831-1.097-1.125-1.312-0.316-0.265-0.81-0.416-1.312-0.108l-0.029 0.021c-1.434 0.967-1.949 1.527-1.806 2.351l0.072 0.337c0.724 2.286 2.129 4.723 4.214 6.894 2.064 2.143 4.3 3.426 6.5 4.315 0.573 0.194 1.168 0.029 1.777-0.495l0.007-0.007c0.466-0.437 0.838-0.903 1.111-1.405v-0.007c0.279-0.551 0.186-1.053-0.208-1.39z"></path>
<path  d="M18.655 13.556c-0.086 0-0.158-0.072-0.165-0.158-0.029-0.595-0.186-1.046-0.473-1.348s-0.709-0.466-1.269-0.502c-0.093-0.007-0.158-0.086-0.158-0.179 0.007-0.093 0.079-0.165 0.172-0.158 0.645 0.036 1.14 0.237 1.484 0.602s0.537 0.889 0.566 1.569c0.007 0.093-0.065 0.172-0.158 0.179z"></path>
<path  d="M20.279 14.115c-0.093 0-0.165-0.079-0.165-0.172 0.029-1.14-0.308-2.1-0.989-2.859-0.337-0.38-0.752-0.681-1.226-0.889-0.473-0.215-1.032-0.344-1.641-0.387-0.093-0.007-0.158-0.086-0.151-0.179s0.086-0.165 0.179-0.158c1.312 0.1 2.351 0.566 3.089 1.391s1.104 1.87 1.075 3.096c-0.007 0.086-0.079 0.158-0.172 0.158z"></path>
<path d="M21.953 14.789c-0.093 0-0.165-0.072-0.165-0.165-0.007-1.003-0.158-1.913-0.452-2.702-0.294-0.781-0.731-1.469-1.305-2.050-0.573-0.573-1.233-1.011-1.942-1.305-0.717-0.294-1.512-0.445-2.372-0.445-0.093 0-0.165-0.079-0.165-0.172s0.072-0.165 0.165-0.165c1.806 0.014 3.333 0.63 4.544 1.842 0.609 0.609 1.075 1.34 1.383 2.172 0.308 0.824 0.466 1.777 0.473 2.824 0 0.087-0.072 0.158-0.165 0.165z"></path>
</symbol>
<symbol id="icon-whatsapp" viewBox="0 0 32 32">
<path  d="M15.358 2.839c-6.96 0.331-12.452 6.128-12.431 13.095 0.006 2.122 0.519 4.125 1.423 5.895l-1.388 6.736c-0.075 0.364 0.254 0.683 0.615 0.598l6.6-1.564c1.696 0.845 3.6 1.333 5.616 1.363 7.114 0.109 13.045-5.54 13.267-12.651 0.238-7.622-6.053-13.837-13.702-13.473zM23.233 23.13c-1.933 1.933-4.503 2.997-7.236 2.997-1.601 0-3.133-0.359-4.555-1.067l-0.919-0.458-4.047 0.959 0.852-4.135-0.453-0.887c-0.738-1.445-1.112-3.009-1.112-4.646 0-2.734 1.064-5.303 2.997-7.236 1.916-1.916 4.528-2.997 7.237-2.997 2.734 0 5.303 1.065 7.236 2.997s2.997 4.503 2.997 7.236c0 2.709-1.082 5.321-2.997 7.237z"></path>
<path  d="M22.342 18.728l-2.532-0.727c-0.333-0.096-0.691-0.001-0.934 0.246l-0.619 0.631c-0.261 0.266-0.657 0.351-1.003 0.212-1.198-0.485-3.717-2.725-4.36-3.845-0.186-0.323-0.155-0.727 0.073-1.022l0.54-0.699c0.212-0.274 0.256-0.642 0.116-0.959l-1.065-2.409c-0.255-0.577-0.992-0.745-1.474-0.338-0.707 0.598-1.545 1.506-1.647 2.512-0.18 1.774 0.581 4.010 3.458 6.695 3.323 3.102 5.985 3.511 7.717 3.092 0.983-0.238 1.768-1.192 2.264-1.974 0.338-0.533 0.071-1.24-0.535-1.414z"></path>
</symbol>


<symbol id="icon-logo" width="192" height="62" viewBox="0 0 192 62" >
<path d="M302 84.1102V96.5941H151.731H1V84.1102H6.08602V24.3495H1V18.8011L154.505 1L302 18.8011V24.3495H296.914V53.7097V84.1102H302Z" stroke-width="0.924731"/>


</symbol>
<symbol id="icon-facebook" viewBox="0 0 33 32">
<path fill="none" stroke-linejoin="round" stroke-linecap="round" stroke-miterlimit="4" stroke-width="1.8824" d="M24.706 2.656h-3.983c-1.761 0-3.449 0.699-4.694 1.944s-1.944 2.934-1.944 4.694v3.983h-3.983v5.311h3.983v10.622h5.311v-10.622h3.983l1.328-5.311h-5.311v-3.983c0-0.352 0.14-0.69 0.389-0.939s0.587-0.389 0.939-0.389h3.983v-5.311z"></path>
</symbol>
<symbol id="icon-instagram" viewBox="0 0 32 32">
<path fill="none" stroke-linejoin="round" stroke-linecap="round" stroke-miterlimit="4" stroke-width="1.8824" d="M22.571 2.656h-13.277c-3.666 0-6.639 2.972-6.639 6.639v13.277c0 3.666 2.972 6.639 6.639 6.639h13.277c3.666 0 6.639-2.972 6.639-6.639v-13.277c0-3.666-2.972-6.639-6.639-6.639z"></path>
<path fill="none"  stroke-linejoin="round" stroke-linecap="round" stroke-miterlimit="4" stroke-width="1.8824" d="M21.243 15.096c0.164 1.105-0.025 2.233-0.539 3.225s-1.328 1.796-2.326 2.298-2.129 0.677-3.232 0.5c-1.103-0.177-2.122-0.698-2.912-1.488s-1.311-1.809-1.488-2.912-0.003-2.234 0.5-3.232c0.502-0.998 1.306-1.812 2.298-2.326s2.12-0.703 3.225-0.539c1.127 0.167 2.171 0.692 2.976 1.498s1.331 1.849 1.498 2.976z"></path>
<path fill="none" stroke-linejoin="round" stroke-linecap="round" stroke-miterlimit="4" stroke-width="1.8824" d="M23.235 8.63h0.013"></path>
</symbol>
<symbol id="icon-arrow-right" viewBox="0 0 32 32">
<path fill="none"   stroke-linejoin="round" stroke-linecap="round" stroke-miterlimit="4" stroke-width="2.4081" d="M6.949 15.451h18.102M25.051 15.451l-9.051-9.051M25.051 15.451l-9.051 9.051"></path>
</symbol>
<symbol id="icon-flag_of_the_United_Kingdom" viewBox="0 0 52 32">
<path fill="#012169" style="fill: var(--color1, #012169)" d="M0 0v32h52.364v-32h-52.364z"></path>
<path fill="none" stroke="#fff" style="stroke: var(--color2, #fff)" stroke-linejoin="miter" stroke-linecap="butt" stroke-miterlimit="4" stroke-width="6.4582" d="M0 0l52.364 32M52.364 0l-52.364 32"></path>
<path fill="none" stroke="#c8102e" style="stroke: var(--color3, #c8102e)" stroke-linejoin="miter" stroke-linecap="butt" stroke-miterlimit="4" stroke-width="4.3055" d="M0 0l52.364 32M52.364 0l-52.364 32"></path>
<path fill="#c8102e" style="fill: var(--color3, #c8102e); stroke: var(--color2, #fff)" stroke="#fff" stroke-linejoin="miter" stroke-linecap="butt" stroke-miterlimit="4" stroke-width="2.1527" d="M-1.047 11.733h23.040v-12.8h8.378v12.8h23.040v8.533h-23.040v12.8h-8.378v-12.8h-23.040v-8.533z"></path>
</symbol>
<symbol id="icon-arrow-right-one" viewBox="0 0 19 32">
<path fill="none"  stroke-linejoin="round" stroke-linecap="round" stroke-miterlimit="4" stroke-width="3.2" d="M3.2 3.2l12.8 12.8-12.8 12.8"></path>
</symbol>
<symbol id="icon-check" viewBox="0 0 32 32">
<path stroke-linejoin="round" stroke-linecap="round" stroke-miterlimit="4" stroke-width="1.5" d="M5 18l7 7 16-16"></path>
</symbol>
</defs>
</svg>
