<svg width="192" height="62" viewBox="0 0 192 62" fill="none" xmlns="http://www.w3.org/2000/svg">
<path d="M191 53.4616V61.3418H96.1459H1V53.4616H4.21045V15.7389H1V12.2366L97.8971 1L191 12.2366V15.7389H187.79V34.2719V53.4616H191Z" stroke="#1A1A1A" stroke-width="0.583717"/>
<path d="M17.4399 19.3844C17.7291 19.3982 18.1078 19.4119 18.576 19.4257C19.0442 19.4395 19.5056 19.4464 19.96 19.4464C20.6072 19.4464 21.2269 19.4395 21.8191 19.4257C22.4112 19.4119 22.8312 19.4051 23.0791 19.4051C24.1945 19.4051 25.1172 19.5634 25.847 19.8802C26.5907 20.1969 27.1415 20.6307 27.4995 21.1815C27.8713 21.7186 28.0572 22.3245 28.0572 22.9992C28.0572 23.4124 27.9746 23.853 27.8094 24.3212C27.6441 24.7895 27.3549 25.2301 26.9418 25.6432C26.5425 26.0564 25.9916 26.4006 25.2893 26.6761C24.587 26.9377 23.6988 27.0685 22.6247 27.0685H20.6417V26.6554H22.4181C23.3958 26.6554 24.1394 26.5039 24.649 26.201C25.1723 25.8842 25.5234 25.4711 25.7024 24.9616C25.8952 24.4383 25.9916 23.8599 25.9916 23.2265C25.9916 22.1386 25.73 21.2985 25.2067 20.7064C24.6972 20.1005 23.8158 19.7975 22.5627 19.7975C21.9292 19.7975 21.5161 19.9146 21.3233 20.1487C21.1305 20.3828 21.0341 20.8579 21.0341 21.574V31.8195C21.0341 32.3152 21.0754 32.687 21.1581 32.9349C21.2407 33.1828 21.3991 33.348 21.6332 33.4306C21.881 33.5133 22.2391 33.5684 22.7073 33.5959V34.009C22.3906 33.9815 21.9912 33.9677 21.5092 33.9677C21.041 33.9539 20.5659 33.9471 20.0839 33.9471C19.5469 33.9471 19.0442 33.9539 18.576 33.9677C18.1078 33.9677 17.7291 33.9815 17.4399 34.009V33.5959C17.9081 33.5684 18.2593 33.5133 18.4934 33.4306C18.7413 33.348 18.9065 33.1828 18.9892 32.9349C19.0718 32.687 19.1131 32.3152 19.1131 31.8195V21.574C19.1131 21.0644 19.0718 20.6926 18.9892 20.4585C18.9065 20.2107 18.7413 20.0454 18.4934 19.9628C18.2593 19.8664 17.9081 19.8113 17.4399 19.7975V19.3844ZM20.7243 26.7174C21.4679 26.7449 22.0532 26.7793 22.4801 26.8206C22.907 26.8482 23.2512 26.8757 23.5129 26.9033C23.7883 26.9308 24.0499 26.9652 24.2978 27.0066C25.2205 27.158 25.8815 27.4403 26.2808 27.8535C26.6939 28.2528 26.9969 28.8794 27.1897 29.7332L27.7061 31.8401C27.8438 32.446 27.9815 32.8867 28.1192 33.1621C28.2707 33.4238 28.4979 33.5477 28.8009 33.5339C29.035 33.5202 29.2278 33.4444 29.3792 33.3067C29.5445 33.169 29.7166 32.9831 29.8957 32.749L30.2055 32.9762C29.9163 33.4031 29.6134 33.7336 29.2966 33.9677C28.9937 34.188 28.5599 34.2982 27.9953 34.2982C27.4858 34.2982 27.0382 34.1467 26.6526 33.8438C26.267 33.5408 25.9779 32.9487 25.7851 32.0673L25.3306 30.0017C25.2067 29.4096 25.0621 28.9 24.8968 28.4731C24.7454 28.0325 24.525 27.6882 24.2358 27.4403C23.9604 27.1925 23.5473 27.0685 22.9965 27.0685H20.7656L20.7243 26.7174Z" fill="#1A1A1A"/>
<path d="M37.6301 19.0952C38.9383 19.0952 40.0813 19.3913 41.0591 19.9834C42.0506 20.5756 42.8148 21.4294 43.3519 22.5448C43.9027 23.6465 44.1781 24.9891 44.1781 26.5728C44.1781 28.1151 43.8958 29.4646 43.3312 30.6214C42.7804 31.7781 42.0092 32.6801 41.0177 33.3274C40.0262 33.9746 38.8902 34.2982 37.6095 34.2982C36.3012 34.2982 35.1514 34.0021 34.1599 33.41C33.1821 32.8178 32.4179 31.9641 31.867 30.8486C31.33 29.7332 31.0614 28.3905 31.0614 26.8206C31.0614 25.2783 31.3437 23.9288 31.9083 22.772C32.4729 21.6153 33.2441 20.7133 34.2218 20.0661C35.2133 19.4188 36.3494 19.0952 37.6301 19.0952ZM37.5475 19.467C36.6524 19.467 35.8743 19.7769 35.2133 20.3966C34.5523 21.0162 34.0359 21.87 33.6641 22.9579C33.3061 24.0458 33.1271 25.3059 33.1271 26.738C33.1271 28.1977 33.3267 29.4715 33.7261 30.5594C34.1392 31.6336 34.6901 32.4667 35.3786 33.0588C36.0809 33.6372 36.8521 33.9264 37.6921 33.9264C38.5872 33.9264 39.3652 33.6166 40.0262 32.9969C40.6872 32.3772 41.1968 31.5234 41.5548 30.4355C41.9266 29.3338 42.1125 28.0738 42.1125 26.6554C42.1125 25.1819 41.906 23.9081 41.4928 22.834C41.0935 21.7599 40.5495 20.9336 39.861 20.3552C39.1725 19.7631 38.4013 19.467 37.5475 19.467Z" fill="#1A1A1A"/>
<path d="M62.2399 19.3844V19.7975C61.7717 19.8113 61.4137 19.8664 61.1658 19.9628C60.9317 20.0454 60.7733 20.2107 60.6907 20.4585C60.6081 20.6926 60.5668 21.0644 60.5668 21.574V31.8195C60.5668 32.3152 60.6081 32.687 60.6907 32.9349C60.7733 33.1828 60.9317 33.348 61.1658 33.4306C61.4137 33.5133 61.7717 33.5684 62.2399 33.5959V34.009C61.9232 33.9815 61.5238 33.9677 61.0419 33.9677C60.5737 33.9539 60.0986 33.9471 59.6166 33.9471C59.0795 33.9471 58.5769 33.9539 58.1087 33.9677C57.6405 33.9677 57.2618 33.9815 56.9726 34.009V33.5959C57.4408 33.5684 57.792 33.5133 58.0261 33.4306C58.2739 33.348 58.4392 33.1828 58.5218 32.9349C58.6044 32.687 58.6457 32.3152 58.6457 31.8195V20.4585L58.7284 20.5205L53.6676 34.1123H53.3371L48.1317 20.7064V31.6129C48.1317 32.1086 48.173 32.5011 48.2557 32.7903C48.3521 33.0657 48.5311 33.2654 48.7927 33.3893C49.0681 33.4995 49.4744 33.5684 50.0114 33.5959V34.009C49.7636 33.9815 49.4399 33.9677 49.0406 33.9677C48.6412 33.9539 48.2625 33.9471 47.9045 33.9471C47.5602 33.9471 47.2091 33.9539 46.851 33.9677C46.5068 33.9677 46.2176 33.9815 45.9835 34.009V33.5959C46.4517 33.5684 46.8028 33.4995 47.0369 33.3893C47.2848 33.2654 47.4501 33.0657 47.5327 32.7903C47.6153 32.5011 47.6566 32.1086 47.6566 31.6129V21.574C47.6566 21.0644 47.6153 20.6926 47.5327 20.4585C47.4501 20.2107 47.2848 20.0454 47.0369 19.9628C46.8028 19.8664 46.4517 19.8113 45.9835 19.7975V19.3844C46.2176 19.3982 46.5068 19.4119 46.851 19.4257C47.2091 19.4395 47.5602 19.4464 47.9045 19.4464C48.2075 19.4464 48.5173 19.4395 48.834 19.4257C49.1645 19.4119 49.4399 19.3982 49.6603 19.3844L54.3492 31.7368L53.9981 31.9021L58.6457 19.4464C58.811 19.4464 58.9694 19.4464 59.1208 19.4464C59.2861 19.4464 59.4513 19.4464 59.6166 19.4464C60.0986 19.4464 60.5737 19.4395 61.0419 19.4257C61.5238 19.4119 61.9232 19.3982 62.2399 19.3844Z" fill="#1A1A1A"/>
<path d="M69.7814 19.2811L74.8215 32.2739C75.0281 32.7972 75.2622 33.1483 75.5238 33.3274C75.7855 33.4926 76.0265 33.5821 76.2468 33.5959V34.009C75.9714 33.9815 75.634 33.9677 75.2346 33.9677C74.8353 33.9539 74.4359 33.9471 74.0366 33.9471C73.4995 33.9471 72.9969 33.9539 72.5287 33.9677C72.0605 33.9677 71.6818 33.9815 71.3926 34.009V33.5959C72.0949 33.5684 72.5424 33.4513 72.7352 33.2447C72.928 33.0244 72.8867 32.5631 72.6113 31.8608L68.7692 21.5946L69.0997 21.3261L65.5056 30.6627C65.2852 31.2135 65.1544 31.6817 65.1131 32.0673C65.0718 32.4391 65.1062 32.7352 65.2164 32.9555C65.3403 33.1759 65.54 33.3342 65.8154 33.4306C66.1046 33.527 66.4626 33.5821 66.8895 33.5959V34.009C66.5039 33.9815 66.0977 33.9677 65.6708 33.9677C65.2577 33.9539 64.8721 33.9471 64.5141 33.9471C64.1698 33.9471 63.8737 33.9539 63.6258 33.9677C63.3917 33.9677 63.1714 33.9815 62.9648 34.009V33.5959C63.2403 33.527 63.5226 33.3687 63.8117 33.1208C64.1009 32.8592 64.3626 32.4185 64.5967 31.7988L69.4509 19.2811C69.506 19.2811 69.5611 19.2811 69.6161 19.2811C69.6712 19.2811 69.7263 19.2811 69.7814 19.2811ZM72.3015 28.06V28.4731H66.1459L66.3525 28.06H72.3015Z" fill="#1A1A1A"/>
<path d="M89.5567 19.3844V19.7975C89.0885 19.8113 88.7304 19.8802 88.4826 20.0041C88.2484 20.128 88.0901 20.3277 88.0075 20.6031C87.9248 20.8785 87.8835 21.271 87.8835 21.7805V34.1123C87.8009 34.1123 87.7183 34.1123 87.6356 34.1123C87.5668 34.1123 87.4911 34.1123 87.4084 34.1123L78.7328 20.7064V31.6129C78.7328 32.1086 78.7741 32.5011 78.8567 32.7903C78.9531 33.0657 79.1322 33.2654 79.3938 33.3893C79.6692 33.4995 80.0755 33.5684 80.6125 33.5959V34.009C80.3646 33.9815 80.041 33.9677 79.6417 33.9677C79.2423 33.9539 78.8636 33.9471 78.5056 33.9471C78.1613 33.9471 77.8102 33.9539 77.4521 33.9677C77.1078 33.9677 76.8187 33.9815 76.5846 34.009V33.5959C77.0528 33.5684 77.4039 33.4995 77.638 33.3893C77.8859 33.2654 78.0512 33.0657 78.1338 32.7903C78.2164 32.5011 78.2577 32.1086 78.2577 31.6129V21.574C78.2577 21.0644 78.2164 20.6926 78.1338 20.4585C78.0512 20.2107 77.8859 20.0454 77.638 19.9628C77.4039 19.8664 77.0528 19.8113 76.5846 19.7975V19.3844C76.8187 19.3982 77.1078 19.4119 77.4521 19.4257C77.8102 19.4395 78.1613 19.4464 78.5056 19.4464C78.8085 19.4464 79.0977 19.4395 79.3731 19.4257C79.6486 19.4119 79.8964 19.3982 80.1168 19.3844L87.4084 30.6214V21.7805C87.4084 21.271 87.3602 20.8785 87.2638 20.6031C87.1812 20.3277 87.0022 20.128 86.7268 20.0041C86.4651 19.8802 86.0658 19.8113 85.5287 19.7975V19.3844C85.7766 19.3982 86.1002 19.4119 86.4995 19.4257C86.9127 19.4395 87.2914 19.4464 87.6356 19.4464C87.9937 19.4464 88.3448 19.4395 88.6891 19.4257C89.0471 19.4119 89.3363 19.3982 89.5567 19.3844Z" fill="#1A1A1A"/>
<path d="M103.212 19.0952C104.107 19.0952 104.83 19.2329 105.381 19.5083C105.932 19.77 106.448 20.0798 106.93 20.4379C107.109 20.5756 107.247 20.6444 107.343 20.6444C107.605 20.6444 107.777 20.2244 107.86 19.3844H108.335C108.307 19.8939 108.287 20.5136 108.273 21.2435C108.259 21.9733 108.252 22.9373 108.252 24.1353H107.777C107.681 23.557 107.564 22.9992 107.426 22.4622C107.288 21.9251 107.061 21.4638 106.744 21.0782C106.345 20.5687 105.822 20.1762 105.174 19.9008C104.527 19.6116 103.859 19.467 103.171 19.467C102.482 19.467 101.856 19.6392 101.291 19.9834C100.74 20.3139 100.265 20.7959 99.8658 21.4294C99.4664 22.0628 99.1566 22.8271 98.9362 23.7222C98.7297 24.6035 98.6264 25.6019 98.6264 26.7174C98.6264 29.1961 99.0257 31.0139 99.8244 32.1706C100.623 33.3136 101.863 33.8851 103.543 33.8851C104.038 33.8851 104.465 33.8162 104.823 33.6785C105.195 33.527 105.484 33.3824 105.691 33.2447C105.952 33.0657 106.118 32.9005 106.187 32.749C106.255 32.5837 106.29 32.3703 106.29 32.1086V30.1256C106.29 29.561 106.235 29.141 106.125 28.8656C106.014 28.5902 105.808 28.4043 105.505 28.3079C105.216 28.2115 104.782 28.1564 104.204 28.1426V27.7295C104.451 27.7433 104.741 27.7571 105.071 27.7708C105.402 27.7708 105.746 27.7777 106.104 27.7915C106.476 27.7915 106.813 27.7915 107.116 27.7915C107.571 27.7915 107.977 27.7846 108.335 27.7708C108.707 27.7571 109.016 27.7433 109.264 27.7295V28.1426C108.961 28.1564 108.734 28.2046 108.583 28.2872C108.431 28.3699 108.328 28.5351 108.273 28.783C108.232 29.0309 108.211 29.4096 108.211 29.9191V34.009H107.798C107.784 33.7749 107.729 33.5202 107.632 33.2447C107.55 32.9693 107.419 32.8316 107.24 32.8316C107.157 32.8316 107.075 32.8523 106.992 32.8936C106.91 32.9349 106.765 33.0313 106.558 33.1828C106.104 33.527 105.622 33.8025 105.112 34.009C104.603 34.2018 104.011 34.2982 103.336 34.2982C101.918 34.2982 100.699 34.009 99.6798 33.4306C98.6746 32.8385 97.9034 31.9916 97.3663 30.8899C96.8293 29.7883 96.5608 28.4731 96.5608 26.9446C96.5608 25.3334 96.8499 23.9425 97.4283 22.772C98.0067 21.6015 98.7916 20.6995 99.7831 20.0661C100.788 19.4188 101.931 19.0952 103.212 19.0952Z" fill="#1A1A1A"/>
<path d="M117.633 19.0952C118.941 19.0952 120.084 19.3913 121.062 19.9834C122.053 20.5756 122.817 21.4294 123.354 22.5448C123.905 23.6465 124.181 24.9891 124.181 26.5728C124.181 28.1151 123.898 29.4646 123.334 30.6214C122.783 31.7781 122.012 32.6801 121.02 33.3274C120.029 33.9746 118.893 34.2982 117.612 34.2982C116.304 34.2982 115.154 34.0021 114.162 33.41C113.185 32.8178 112.42 31.9641 111.87 30.8486C111.333 29.7332 111.064 28.3905 111.064 26.8206C111.064 25.2783 111.346 23.9288 111.911 22.772C112.476 21.6153 113.247 20.7133 114.224 20.0661C115.216 19.4188 116.352 19.0952 117.633 19.0952ZM117.55 19.467C116.655 19.467 115.877 19.7769 115.216 20.3966C114.555 21.0162 114.039 21.87 113.667 22.9579C113.309 24.0458 113.13 25.3059 113.13 26.738C113.13 28.1977 113.329 29.4715 113.729 30.5594C114.142 31.6336 114.693 32.4667 115.381 33.0588C116.083 33.6372 116.855 33.9264 117.695 33.9264C118.59 33.9264 119.368 33.6166 120.029 32.9969C120.69 32.3772 121.199 31.5234 121.557 30.4355C121.929 29.3338 122.115 28.0738 122.115 26.6554C122.115 25.1819 121.909 23.9081 121.495 22.834C121.096 21.7599 120.552 20.9336 119.864 20.3552C119.175 19.7631 118.404 19.467 117.55 19.467Z" fill="#1A1A1A"/>
<path d="M125.986 19.3844C126.275 19.3982 126.654 19.4119 127.122 19.4257C127.59 19.4395 128.052 19.4464 128.506 19.4464C129.153 19.4464 129.773 19.4395 130.365 19.4257C130.957 19.4119 131.377 19.4051 131.625 19.4051C132.741 19.4051 133.663 19.5634 134.393 19.8802C135.137 20.1969 135.688 20.6307 136.046 21.1815C136.417 21.7186 136.603 22.3245 136.603 22.9992C136.603 23.4124 136.521 23.853 136.355 24.3212C136.19 24.7895 135.901 25.2301 135.488 25.6432C135.089 26.0564 134.538 26.4006 133.835 26.6761C133.133 26.9377 132.245 27.0685 131.171 27.0685H129.188V26.6554H130.964C131.942 26.6554 132.686 26.5039 133.195 26.201C133.718 25.8842 134.07 25.4711 134.249 24.9616C134.441 24.4383 134.538 23.8599 134.538 23.2265C134.538 22.1386 134.276 21.2985 133.753 20.7064C133.243 20.1005 132.362 19.7975 131.109 19.7975C130.475 19.7975 130.062 19.9146 129.869 20.1487C129.677 20.3828 129.58 20.8579 129.58 21.574V31.8195C129.58 32.3152 129.622 32.687 129.704 32.9349C129.787 33.1828 129.945 33.348 130.179 33.4306C130.427 33.5133 130.785 33.5684 131.253 33.5959V34.009C130.937 33.9815 130.537 33.9677 130.055 33.9677C129.587 33.9539 129.112 33.9471 128.63 33.9471C128.093 33.9471 127.59 33.9539 127.122 33.9677C126.654 33.9677 126.275 33.9815 125.986 34.009V33.5959C126.454 33.5684 126.805 33.5133 127.04 33.4306C127.287 33.348 127.453 33.1828 127.535 32.9349C127.618 32.687 127.659 32.3152 127.659 31.8195V21.574C127.659 21.0644 127.618 20.6926 127.535 20.4585C127.453 20.2107 127.287 20.0454 127.04 19.9628C126.805 19.8664 126.454 19.8113 125.986 19.7975V19.3844ZM129.27 26.7174C130.014 26.7449 130.599 26.7793 131.026 26.8206C131.453 26.8482 131.797 26.8757 132.059 26.9033C132.334 26.9308 132.596 26.9652 132.844 27.0066C133.767 27.158 134.428 27.4403 134.827 27.8535C135.24 28.2528 135.543 28.8794 135.736 29.7332L136.252 31.8401C136.39 32.446 136.528 32.8867 136.665 33.1621C136.817 33.4238 137.044 33.5477 137.347 33.5339C137.581 33.5202 137.774 33.4444 137.925 33.3067C138.091 33.169 138.263 32.9831 138.442 32.749L138.752 32.9762C138.462 33.4031 138.159 33.7336 137.843 33.9677C137.54 34.188 137.106 34.2982 136.541 34.2982C136.032 34.2982 135.584 34.1467 135.199 33.8438C134.813 33.5408 134.524 32.9487 134.331 32.0673L133.877 30.0017C133.753 29.4096 133.608 28.9 133.443 28.4731C133.291 28.0325 133.071 27.6882 132.782 27.4403C132.507 27.1925 132.093 27.0685 131.543 27.0685H129.312L129.27 26.7174Z" fill="#1A1A1A"/>
<path d="M139.38 19.3844C139.67 19.3982 140.048 19.4119 140.516 19.4257C140.985 19.4395 141.446 19.4464 141.9 19.4464C142.548 19.4464 143.167 19.4395 143.759 19.4257C144.352 19.4119 144.772 19.4051 145.019 19.4051C146.465 19.4051 147.553 19.708 148.283 20.3139C149.013 20.9198 149.378 21.6979 149.378 22.6481C149.378 23.1301 149.275 23.6052 149.068 24.0734C148.875 24.5278 148.545 24.9478 148.077 25.3334C147.622 25.7052 147.009 26.0082 146.238 26.2423V26.2836C147.326 26.4213 148.173 26.6829 148.779 27.0685C149.399 27.4403 149.832 27.881 150.08 28.3905C150.328 28.9 150.452 29.4371 150.452 30.0017C150.452 30.7866 150.252 31.4821 149.853 32.088C149.467 32.6801 148.903 33.1483 148.159 33.4926C147.416 33.8369 146.527 34.009 145.495 34.009C145.192 34.009 144.737 34.0021 144.131 33.9884C143.525 33.9608 142.795 33.9471 141.942 33.9471C141.46 33.9471 140.985 33.9539 140.516 33.9677C140.048 33.9677 139.67 33.9815 139.38 34.009V33.5959C139.849 33.5684 140.2 33.5133 140.434 33.4306C140.682 33.348 140.847 33.1828 140.93 32.9349C141.012 32.687 141.053 32.3152 141.053 31.8195V21.574C141.053 21.0644 141.012 20.6926 140.93 20.4585C140.847 20.2107 140.682 20.0454 140.434 19.9628C140.2 19.8664 139.849 19.8113 139.38 19.7975V19.3844ZM144.503 19.7975C143.87 19.7975 143.456 19.9146 143.264 20.1487C143.071 20.3828 142.975 20.8579 142.975 21.574V31.8195C142.975 32.3014 143.016 32.6664 143.098 32.9142C143.181 33.1621 143.333 33.3274 143.553 33.41C143.773 33.4926 144.097 33.5339 144.524 33.5339C145.873 33.5339 146.851 33.2241 147.457 32.6044C148.077 31.9709 148.386 31.0758 148.386 29.9191C148.386 28.8587 148.097 28.0394 147.519 27.461C146.954 26.8826 146.018 26.5934 144.71 26.5934H142.582C142.582 26.5934 142.582 26.5383 142.582 26.4282C142.582 26.3042 142.582 26.2423 142.582 26.2423H144.358C145.171 26.2423 145.798 26.0908 146.238 25.7878C146.679 25.4711 146.982 25.058 147.147 24.5485C147.312 24.0252 147.395 23.4675 147.395 22.8753C147.395 21.8563 147.168 21.092 146.713 20.5825C146.273 20.0592 145.536 19.7975 144.503 19.7975Z" fill="#1A1A1A"/>
<path d="M157.913 19.2811L162.953 32.2739C163.16 32.7972 163.394 33.1483 163.656 33.3274C163.917 33.4926 164.158 33.5821 164.379 33.5959V34.009C164.103 33.9815 163.766 33.9677 163.367 33.9677C162.967 33.9539 162.568 33.9471 162.169 33.9471C161.631 33.9471 161.129 33.9539 160.661 33.9677C160.192 33.9677 159.814 33.9815 159.525 34.009V33.5959C160.227 33.5684 160.674 33.4513 160.867 33.2447C161.06 33.0244 161.019 32.5631 160.743 31.8608L156.901 21.5946L157.232 21.3261L153.637 30.6627C153.417 31.2135 153.286 31.6817 153.245 32.0673C153.204 32.4391 153.238 32.7352 153.348 32.9555C153.472 33.1759 153.672 33.3342 153.947 33.4306C154.237 33.527 154.595 33.5821 155.021 33.5959V34.009C154.636 33.9815 154.23 33.9677 153.803 33.9677C153.39 33.9539 153.004 33.9471 152.646 33.9471C152.302 33.9471 152.006 33.9539 151.758 33.9677C151.524 33.9677 151.303 33.9815 151.097 34.009V33.5959C151.372 33.527 151.654 33.3687 151.944 33.1208C152.233 32.8592 152.495 32.4185 152.729 31.7988L157.583 19.2811C157.638 19.2811 157.693 19.2811 157.748 19.2811C157.803 19.2811 157.858 19.2811 157.913 19.2811ZM160.433 28.06V28.4731H154.278L154.484 28.06H160.433Z" fill="#1A1A1A"/>
<path d="M175.369 19.3844V19.7975C175.108 19.8526 174.846 20.0247 174.585 20.3139C174.323 20.5894 174.034 21.03 173.717 21.6359L169.544 29.8984H169.193L164.36 20.9749C164.084 20.4654 163.85 20.1487 163.657 20.0247C163.478 19.887 163.313 19.8182 163.162 19.8182V19.3844C163.437 19.3982 163.719 19.4119 164.009 19.4257C164.311 19.4395 164.635 19.4464 164.979 19.4464C165.434 19.4464 165.916 19.4464 166.425 19.4464C166.949 19.4326 167.431 19.4119 167.871 19.3844V19.8182C167.527 19.8182 167.224 19.8595 166.962 19.9421C166.701 20.0247 166.529 20.1762 166.446 20.3966C166.363 20.6169 166.425 20.9267 166.632 21.3261L170.123 28.0187L169.958 28.1426L172.705 22.6687C173.09 21.9113 173.276 21.3261 173.263 20.913C173.263 20.4998 173.104 20.2175 172.787 20.0661C172.471 19.9008 172.023 19.8113 171.445 19.7975V19.3844C171.844 19.3982 172.25 19.4119 172.663 19.4257C173.077 19.4395 173.462 19.4464 173.82 19.4464C174.178 19.4464 174.474 19.4395 174.708 19.4257C174.943 19.4119 175.163 19.3982 175.369 19.3844ZM170.474 27.7295V31.8195C170.474 32.3152 170.515 32.687 170.598 32.9349C170.68 33.1828 170.839 33.348 171.073 33.4306C171.321 33.5133 171.679 33.5684 172.147 33.5959V34.009C171.83 33.9815 171.431 33.9677 170.949 33.9677C170.481 33.9539 170.006 33.9471 169.524 33.9471C168.987 33.9471 168.484 33.9539 168.016 33.9677C167.548 33.9677 167.169 33.9815 166.88 34.009V33.5959C167.348 33.5684 167.699 33.5133 167.933 33.4306C168.181 33.348 168.346 33.1828 168.429 32.9349C168.512 32.687 168.553 32.3152 168.553 31.8195V27.5849L169.668 28.8656L170.474 27.7295Z" fill="#1A1A1A"/>
<path d="M18.552 51.4578H22.4693V52.0514H17.9229V43.7419H18.552V51.4578Z" fill="#1A1A1A"/>
<path d="M39.6307 52.0514L38.8235 49.9384H34.6569L33.8497 52.0514H33.1849L36.4137 43.7419H37.0785L40.2954 52.0514H39.6307ZM34.8943 49.3449H38.5979L36.7461 44.5135L34.8943 49.3449Z" fill="#1A1A1A"/>
<path d="M52.8293 52.0514L50.4195 43.7419H51.0843L53.2329 51.2085L55.5476 43.7419H56.2955L58.6221 51.2085L60.7588 43.7419H61.4236L59.0139 52.0514H58.2541L55.9275 44.561L53.589 52.0514H52.8293Z" fill="#1A1A1A"/>
<path d="M92.9255 50.9355C92.0946 51.7665 91.0816 52.1819 89.8867 52.1819C88.6917 52.1819 87.6787 51.7665 86.8478 50.9355C86.0168 50.0967 85.6013 49.0837 85.6013 47.8966C85.6013 46.7096 86.0168 45.7006 86.8478 44.8696C87.6787 44.0308 88.6917 43.6113 89.8867 43.6113C91.0816 43.6113 92.0946 44.0308 92.9255 44.8696C93.7565 45.7006 94.172 46.7096 94.172 47.8966C94.172 49.0837 93.7565 50.0967 92.9255 50.9355ZM87.287 50.5082C87.9992 51.2204 88.8658 51.5765 89.8867 51.5765C90.9075 51.5765 91.7701 51.2204 92.4744 50.5082C93.1867 49.788 93.5428 48.9175 93.5428 47.8966C93.5428 46.8758 93.1867 46.0092 92.4744 45.297C91.7701 44.5768 90.9075 44.2167 89.8867 44.2167C88.8658 44.2167 87.9992 44.5768 87.287 45.297C86.5826 46.0092 86.2305 46.8758 86.2305 47.8966C86.2305 48.9175 86.5826 49.788 87.287 50.5082Z" fill="#1A1A1A"/>
<path d="M110.404 44.3354H106.427V47.6592H110.262V48.2528H106.427V52.0514H105.798V43.7419H110.404V44.3354Z" fill="#1A1A1A"/>
<path d="M126.579 44.3354H122.602V47.6592H126.436V48.2528H122.602V52.0514H121.973V43.7419H126.579V44.3354Z" fill="#1A1A1A"/>
<path d="M138.148 43.7419H138.777V52.0514H138.148V43.7419Z" fill="#1A1A1A"/>
<path d="M154.714 52.1819C153.463 52.1819 152.431 51.7704 151.616 50.9474C150.8 50.1164 150.393 49.0995 150.393 47.8966C150.393 46.6937 150.8 45.6808 151.616 44.8577C152.431 44.0268 153.463 43.6113 154.714 43.6113C155.473 43.6113 156.17 43.7933 156.803 44.1574C157.436 44.5135 157.927 44.9962 158.275 45.6056L157.717 45.9261C157.44 45.4117 157.033 45.0002 156.494 44.6916C155.956 44.375 155.363 44.2167 154.714 44.2167C153.637 44.2167 152.751 44.5729 152.055 45.2851C151.366 45.9894 151.022 46.8599 151.022 47.8966C151.022 48.9333 151.366 49.8078 152.055 50.52C152.751 51.2244 153.637 51.5765 154.714 51.5765C155.363 51.5765 155.96 51.4183 156.506 51.1017C157.052 50.7852 157.464 50.3618 157.741 49.8316L158.299 50.1521C157.958 50.7693 157.468 51.2639 156.827 51.6359C156.186 51.9999 155.481 52.1819 154.714 52.1819Z" fill="#1A1A1A"/>
<path d="M170.442 51.4578H174.597V52.0514H169.813V43.7419H174.537V44.3354H170.442V47.5643H174.241V48.1578H170.442V51.4578Z" fill="#1A1A1A"/>
</svg>
